SplineFontDB: 3.0
FontName: moonsymbols
FullName: moonsymbols
FamilyName: moonsymbols
Weight: Regular
Copyright: Copyright (c) 2021, RobertWinslow\nBased on public domain symbols by Denis M Moskowitz.
UComments: "2021-7-14: Created with FontForge (http://fontforge.org)"
Version: 001.000
ItalicAngle: 0
UnderlinePosition: -100
UnderlineWidth: 50
Ascent: 800
Descent: 200
InvalidEm: 0
LayerCount: 2
Layer: 0 0 "Back" 1
Layer: 1 0 "Fore" 0
XUID: [1021 966 -219639050 19151]
StyleMap: 0x0000
FSType: 0
OS2Version: 0
OS2_WeightWidthSlopeOnly: 0
OS2_UseTypoMetrics: 1
CreationTime: 1626313267
ModificationTime: 1626327541
OS2TypoAscent: 0
OS2TypoAOffset: 1
OS2TypoDescent: 0
OS2TypoDOffset: 1
OS2TypoLinegap: 90
OS2WinAscent: 0
OS2WinAOffset: 1
OS2WinDescent: 0
OS2WinDOffset: 1
HheadAscent: 0
HheadAOffset: 1
HheadDescent: 0
HheadDOffset: 1
MarkAttachClasses: 1
DEI: 91125
Encoding: ISO8859-1
UnicodeInterp: none
NameList: AGL For New Fonts
DisplaySize: -48
AntiAlias: 1
FitToEm: 0
WinInfo: 18 18 14
BeginPrivate: 0
EndPrivate
BeginChars: 256 27

StartChar: T
Encoding: 84 84 0
Width: 1000
VWidth: 0
Flags: H
LayerCount: 2
Fore
SplineSet
500.021484375 762.482421875 m 0
 593.229492188 762.483398438 671.677734375 695.927734375 690.293945312 608.022460938 c 2
 916.584960938 608.022460938 l 1
 916.584960938 527.923828125 l 1
 690.293945312 527.923828125 l 2
 674.416992188 452.990234375 614.985351562 393.698242188 540.018554688 377.85546875 c 2
 540.018554688 355.272460938 l 2
 574.802734375 384.068359375 614.514648438 398.62890625 650.399414062 398.62890625 c 0
 674.373046875 398.62890625 714.075195312 393.3984375 751.737304688 365.0390625 c 0
 789.3984375 336.680664062 819.536132812 283.76953125 819.536132812 207.6328125 c 0
 819.536132812 145.458984375 786.704101562 95.4169921875 759.178710938 54.515625 c 0
 731.653320312 13.615234375 712.307617188 -22.3056640625 712.307617188 -28.7353515625 c 0
 712.307617188 -53.4970703125 720.556640625 -63.5576171875 732.047851562 -72.24609375 c 0
 743.540039062 -80.935546875 761.068359375 -84.958984375 767.963867188 -84.958984375 c 2
 767.963867188 -165.057617188 l 2
 741.9296875 -165.057617188 711.919921875 -157.1875 683.782226562 -135.912109375 c 0
 655.64453125 -114.635742188 632.416015625 -76.564453125 632.416015625 -28.7353515625 c 0
 632.416015625 25.1142578125 666.705078125 60.478515625 692.774414062 99.2158203125 c 0
 718.84375 137.953125 739.438476562 175.896484375 739.438476562 207.6328125 c 0
 739.438476562 264.70703125 721.947265625 287.293945312 703.522460938 301.166992188 c 0
 685.098632812 315.041015625 660.321289062 318.737304688 650.399414062 318.737304688 c 0
 624.127929688 318.737304688 561.569335938 292.184570312 538.674804688 207.788085938 c 0
 534.360351562 191.293945312 517.022460938 177.907226562 499.973632812 177.907226562 c 0
 477.890625 177.907226562 459.96875 195.829101562 459.96875 217.911132812 c 0
 459.96875 218.041015625 459.970703125 218.251953125 459.971679688 218.381835938 c 2
 459.971679688 377.85546875 l 2
 385.004882812 393.698242188 325.573242188 452.990234375 309.697265625 527.923828125 c 2
 83.40625 527.923828125 l 1
 83.40625 608.022460938 l 1
 309.697265625 608.022460938 l 2
 328.3125 695.927734375 406.8125 762.482421875 500.021484375 762.482421875 c 0
500.021484375 682.436523438 m 0
 450.513671875 682.436523438 409.16796875 651.590820312 393.05078125 608.022460938 c 2
 606.991210938 608.022460938 l 2
 590.875 651.592773438 549.529296875 682.436523438 500.021484375 682.436523438 c 0
393.05078125 527.923828125 m 2
 404.549804688 496.838867188 428.885742188 472.500976562 459.971679688 461.002929688 c 2
 459.971679688 527.923828125 l 1
 393.05078125 527.923828125 l 2
540.018554688 527.923828125 m 1
 540.018554688 461.002929688 l 2
 571.127929688 472.494140625 595.487304688 496.822265625 606.991210938 527.923828125 c 2
 540.018554688 527.923828125 l 1
EndSplineSet
Validated: 524321
EndChar

StartChar: I
Encoding: 73 73 1
Width: 1000
VWidth: 0
Flags: H
LayerCount: 2
Fore
SplineSet
339.453125 -134.9609375 m 1
 339.453125 -174.9609375 l 1
 660.546875 -174.9609375 l 1
 660.546875 -134.9609375 l 1
 660.546875 -94.9609375 l 1
 339.453125 -94.9609375 l 1
 339.453125 -134.9609375 l 1
194.43359375 152.83203125 m 1
 194.43359375 112.83203125 l 1
 805.56640625 112.83203125 l 1
 805.56640625 152.83203125 l 1
 805.56640625 192.83203125 l 1
 194.43359375 192.83203125 l 1
 194.43359375 152.83203125 l 1
500 734.9609375 m 1
 460 734.9609375 l 1
 460 -134.9609375 l 1
 500 -134.9609375 l 1
 540 -134.9609375 l 1
 540 734.9609375 l 1
 500 734.9609375 l 1
339.453125 734.9609375 m 1
 339.453125 694.9609375 l 1
 660.546875 694.9609375 l 1
 660.546875 734.9609375 l 1
 660.546875 774.9609375 l 1
 339.453125 774.9609375 l 1
 339.453125 734.9609375 l 1
EndSplineSet
Validated: 524293
EndChar

StartChar: R
Encoding: 82 82 2
Width: 1000
VWidth: 0
Flags: HW
LayerCount: 2
Fore
SplineSet
24.958984375 491.703125 m 1
 24.958984375 451.220703125 l 1
 975.041992188 451.220703125 l 1
 975.041992188 491.703125 l 1
 975.041992188 532.185546875 l 1
 24.958984375 532.185546875 l 1
 24.958984375 491.703125 l 1
500 -174.948242188 m 1
 539.5234375 -174.948242188 l 1
 539.5234375 774.97265625 l 1
 500 774.97265625 l 1
 460.477539062 774.97265625 l 1
 460.477539062 -174.948242188 l 1
 500 -174.948242188 l 1
206.19921875 774.873046875 m 1
 166.67578125 774.873046875 l 2
 166.67578125 391.163085938 282.852539062 240.975585938 500 240.975585938 c 0
 717.625976562 240.975585938 833.325195312 396.907226562 833.325195312 774.873046875 c 2
 793.801757812 774.873046875 l 1
 754.278320312 774.873046875 l 2
 754.278320312 408.698242188 658.610351562 321.940429688 500 321.940429688 c 0
 340.913085938 321.940429688 245.72265625 403.330078125 245.72265625 774.873046875 c 2
 206.19921875 774.873046875 l 1
EndSplineSet
Validated: 524293
EndChar

StartChar: S
Encoding: 83 83 3
Width: 1000
VWidth: 0
Flags: HW
LayerCount: 2
Fore
SplineSet
713.28125 563.76953125 m 0
 713.28125 680.888671875 617.223632812 775 500 775 c 0
 382.748046875 775 286.81640625 680.848632812 286.81640625 563.76953125 c 0
 286.81640625 446.690429688 382.748046875 352.5390625 500 352.5390625 c 0
 617.223632812 352.5390625 713.28125 446.650390625 713.28125 563.76953125 c 0
613.28125 563.76953125 m 0
 613.28125 502.958984375 563.049804688 452.5390625 500 452.5390625 c 0
 436.978515625 452.5390625 386.81640625 502.918945312 386.81640625 563.76953125 c 0
 386.81640625 624.620117188 436.978515625 675 500 675 c 0
 563.049804688 675 613.28125 624.580078125 613.28125 563.76953125 c 0
83.30078125 567.96875 m 1
 83.30078125 517.96875 l 1
 916.69921875 517.96875 l 1
 916.69921875 567.96875 l 1
 916.69921875 617.96875 l 1
 83.30078125 617.96875 l 1
 83.30078125 567.96875 l 1
771.58203125 -125 m 1
 771.58203125 -75 l 2
 754.635742188 -75 725.87890625 -63.947265625 725.87890625 -28.80859375 c 0
 725.87890625 -14.931640625 833.10546875 81.9033203125 833.10546875 207.6171875 c 0
 833.10546875 376.140625 701.671875 408.69140625 653.90625 408.69140625 c 0
 619.892578125 408.69140625 564.299804688 382.362304688 553.515625 375.412109375 c 2
 553.515625 566.30859375 l 1
 503.515625 566.30859375 l 1
 453.515625 566.30859375 l 1
 453.515625 218.26171875 l 1
 451 203 l 1
 551.771484375 205.169921875 l 2
 551.771484375 205.169921875 630.631835938 308.69140625 653.90625 308.69140625 c 0
 674.109375 308.69140625 733.10546875 305.5 733.10546875 207.6171875 c 0
 733.10546875 145.440429688 625.87890625 78.017578125 625.87890625 -28.80859375 c 0
 625.87890625 -138.787109375 722.708007812 -175 771.58203125 -175 c 2
 771.58203125 -125 l 1
EndSplineSet
Validated: 524293
EndChar

StartChar: E
Encoding: 69 69 4
Width: 1000
VWidth: 0
Flags: H
LayerCount: 2
Fore
SplineSet
640.42578125 774.98828125 m 1
 720.317382812 774.98828125 l 1
 720.317382812 202.723632812 l 1
 838.657226562 202.723632812 l 1
 838.657226562 122.83203125 l 1
 720.317382812 122.83203125 l 1
 720.317382812 -174.979492188 l 1
 640.42578125 -174.979492188 l 1
 640.42578125 122.83203125 l 1
 359.564453125 122.83203125 l 1
 359.564453125 122.935546875 l 2
 296.350585938 123.532226562 238.729492188 160.048828125 208.204101562 216.780273438 c 0
 177.426757812 273.978515625 177.426757812 343.39453125 208.204101562 400.592773438 c 0
 219.977539062 422.473632812 235.801757812 441.317382812 254.403320312 456.299804688 c 1
 237.13671875 472.6640625 223.213867188 492.975585938 214.25 516.193359375 c 0
 190.862304688 576.768554688 203.29296875 645.79296875 247.271484375 692.978515625 c 0
 269.258789062 716.567382812 297.487304688 732.056640625 327.525390625 738.453125 c 0
 357.563476562 744.849609375 389.439453125 742.1171875 418.734375 729.099609375 c 0
 477.322265625 703.059570312 513.870117188 643.220703125 513.870117188 578.1015625 c 2
 433.771484375 578.1015625 l 2
 433.771484375 613.278320312 414.104492188 643.685546875 386.333007812 656.029296875 c 0
 358.561523438 668.370117188 327.997070312 662.196289062 305.873046875 638.459960938 c 0
 283.74609375 614.719726562 276.48046875 577.017578125 288.87109375 544.924804688 c 0
 301.0703125 513.327148438 327.891601562 494.793945312 356.876953125 494.23046875 c 0
 358.303710938 494.267578125 359.68359375 494.541015625 361.115234375 494.541015625 c 0
 361.12890625 494.541015625 361.150390625 494.541015625 361.1640625 494.541015625 c 0
 383.244140625 494.541015625 401.1640625 476.62109375 401.1640625 454.541015625 c 0
 401.1640625 454.52734375 401.1640625 454.504882812 401.1640625 454.491210938 c 0
 401.1640625 454.477539062 401.1640625 454.456054688 401.1640625 454.442382812 c 0
 401.1640625 432.362304688 383.244140625 414.442382812 361.1640625 414.442382812 c 0
 361.150390625 414.442382812 361.12890625 414.442382812 361.115234375 414.442382812 c 0
 360.139648438 414.442382812 359.193359375 414.267578125 358.220703125 414.235351562 c 2
 358.220703125 414.080078125 l 2
 357.870117188 414.080078125 357.537109375 414.181640625 357.1875 414.18359375 c 0
 325.364257812 412.762695312 295.614257812 394.455078125 278.536132812 362.713867188 c 0
 260.75 329.66015625 260.75 287.763671875 278.536132812 254.709960938 c 0
 296.321289062 221.65625 327.81640625 202.723632812 361.115234375 202.723632812 c 2
 640.42578125 202.723632812 l 1
 640.42578125 774.98828125 l 1
EndSplineSet
Validated: 524321
EndChar

StartChar: G
Encoding: 71 71 5
Width: 1000
VWidth: 0
Flags: H
LayerCount: 2
Fore
SplineSet
529.4765625 765.014648438 m 1
 627.919921875 507.09765625 l 2
 655.590820312 566.056640625 682.91015625 623.958007812 707.60546875 675.666992188 c 2
 796.178710938 675.666992188 l 2
 761.120117188 602.390625 719.66796875 515.4375 675.979492188 421.263671875 c 0
 673.096679688 415.05078125 670.517578125 409.161132812 667.659179688 402.969726562 c 2
 763.673828125 151.357421875 l 1
 688.846679688 122.83203125 l 1
 621.046875 300.598632812 l 2
 598.77734375 251.016601562 577.44921875 202.873046875 558.208984375 158.178710938 c 0
 564.551757812 140.891601562 573.188476562 119.923828125 578.724609375 104.125 c 0
 589.9140625 72.19140625 599.3046875 43.8251953125 606.061523438 20.3056640625 c 0
 612.817382812 -3.212890625 617.567382812 -19.3740234375 617.791992188 -38.6572265625 c 0
 618.512695312 -100.568359375 566.668945312 -148.831054688 509.788085938 -148.831054688 c 0
 450.064453125 -148.831054688 402.71484375 -100.178710938 402.71484375 -39.27734375 c 0
 402.71484375 -13.2119140625 410.891601562 5.4970703125 422.092773438 36.89453125 c 0
 433.293945312 68.291015625 448.739257812 107.197265625 467.361328125 151.357421875 c 0
 468.555664062 154.189453125 470.483398438 158.250976562 471.702148438 161.124023438 c 0
 455.326171875 204.873046875 440.297851562 246.537109375 421.6796875 293.364257812 c 0
 391.290039062 369.798828125 359.969726562 445.491210938 334.552734375 505.083007812 c 0
 309.13671875 564.673828125 286.982421875 612.279296875 284.168945312 617.168945312 c 0
 284.0078125 617.4375 283.752929688 617.876953125 283.600585938 618.150390625 c 0
 275.595703125 633.043945312 259.310546875 646.55859375 240.244140625 655.66796875 c 0
 221.176757812 664.77734375 199.131835938 668.948242188 190.014648438 668.948242188 c 2
 190.014648438 748.83984375 l 2
 215.76953125 748.840820312 244.770507812 742.166992188 274.608398438 727.911132812 c 0
 304.447265625 713.655273438 335.090820312 691.083984375 353.931640625 656.029296875 c 0
 365.540039062 635.673828125 382.505859375 596.241210938 407.985351562 536.501953125 c 0
 433.704101562 476.203125 465.236328125 399.961914062 495.88671875 322.87109375 c 0
 504.068359375 302.295898438 510.01953125 284.8828125 517.953125 264.477539062 c 1
 538.782226562 311.432617188 559.322265625 357.834960938 580.946289062 405.657226562 c 2
 454.701171875 736.541015625 l 1
 529.4765625 765.014648438 l 1
512.681640625 48.41796875 m 1
 507.978515625 36.2861328125 501.038085938 20.0625 497.4375 9.970703125 c 0
 487.109375 -18.9775390625 482.8125 -44.1025390625 482.8125 -39.27734375 c 1
 482.8125 -52.0712890625 501.857421875 -68.939453125 509.788085938 -68.939453125 c 0
 529.237304688 -68.939453125 537.971679688 -63.55078125 537.693359375 -39.638671875 c 1
 537.701171875 -40.310546875 535.177734375 -22.86328125 529.115234375 -1.759765625 c 0
 525.275390625 11.60546875 518.59375 30.6962890625 512.681640625 48.41796875 c 1
EndSplineSet
Validated: 524321
EndChar

StartChar: K
Encoding: 75 75 6
Width: 1000
VWidth: 0
Flags: H
LayerCount: 2
Fore
SplineSet
756.73828125 334.47265625 m 1
 716.73828125 334.47265625 l 1
 716.73828125 -175 l 1
 756.73828125 -175 l 1
 796.73828125 -175 l 1
 796.73828125 334.47265625 l 1
 756.73828125 334.47265625 l 1
943.45703125 85.15625 m 1
 943.45703125 125.15625 l 1
 557.32421875 125.15625 l 2
 509.337890625 125.15625 473.7890625 225.327148438 473.7890625 256.8359375 c 0
 473.7890625 362.08203125 595.850585938 687.159179688 595.850585938 687.159179688 c 1
 734.6328125 1049.53320312 l 1
 524.845703125 723.08984375 l 1
 524.845703125 723.08984375 316.658203125 395.846679688 203.409179688 190.8515625 c 1
 224.373046875 398.958984375 261.497070312 633.4921875 229.265625 686.879882812 c 0
 184.462890625 761.11328125 98.6259765625 775.669921875 56.546875 774.955078125 c 2
 57.2265625 734.9609375 l 1
 57.90625 694.966796875 l 2
 82.322265625 695.381835938 121.353515625 691.012695312 157.553710938 651.327148438 c 0
 162.540039062 596.3515625 99.89453125 -27.2138671875 99.89453125 -27.2138671875 c 1
 59.5087890625 -389.885742188 l 1
 177.5 -44.57421875 l 2
 206.383789062 39.95703125 313.536132812 227.473632812 417.596679688 399.532226562 c 1
 411.790039062 376.711914062 393.7890625 291.239257812 393.7890625 256.8359375 c 0
 393.7890625 223.305664062 421.326171875 45.15625 557.32421875 45.15625 c 2
 943.45703125 45.15625 l 1
 943.45703125 85.15625 l 1
EndSplineSet
Validated: 524325
EndChar

StartChar: J
Encoding: 74 74 7
Width: 1000
VWidth: 0
Flags: HW
LayerCount: 2
Fore
SplineSet
342.87109375 -125 m 1
 342.87109375 -175 l 1
 657.12890625 -175 l 1
 657.12890625 -125 l 1
 657.12890625 -75 l 1
 342.87109375 -75 l 1
 342.87109375 -125 l 1
200.87890625 156.25 m 1
 200.87890625 106.25 l 1
 799.12109375 106.25 l 1
 799.12109375 156.25 l 1
 799.12109375 206.25 l 1
 200.87890625 206.25 l 1
 200.87890625 156.25 l 1
500 725 m 1
 450 725 l 1
 450 -125 l 1
 500 -125 l 1
 550 -125 l 1
 550 725 l 1
 500 725 l 1
342.87109375 725 m 1
 342.87109375 675 l 1
 657.12890625 675 l 1
 657.12890625 725 l 1
 657.12890625 775 l 1
 342.87109375 775 l 1
 342.87109375 725 l 1
EndSplineSet
Validated: 524293
EndChar

StartChar: C
Encoding: 67 67 8
Width: 1000
VWidth: 0
Flags: HW
LayerCount: 2
Fore
SplineSet
939.35546875 82.6171875 m 1
 939.35546875 132.6171875 l 1
 556.8359375 132.6171875 l 2
 520.73828125 132.6171875 484.47265625 221.771484375 484.47265625 252.63671875 c 0
 484.47265625 352.712890625 604.70703125 675.005859375 604.70703125 675.005859375 c 1
 777.822265625 1127.52734375 l 1
 515.94140625 719.896484375 l 1
 515.94140625 719.896484375 329.075195312 425.643554688 221.55859375 235.73828125 c 1
 240.491210938 428.305664062 276.09765625 625.248046875 240.735351562 683.87890625 c 0
 193.368164062 762.216796875 104.389648438 776.81640625 60.666015625 776.06640625 c 2
 61.5234375 726.07421875 l 1
 62.380859375 676.08203125 l 2
 83.25 676.439453125 116.310546875 672.951171875 150.735351562 639.568359375 c 0
 153.341796875 567.393554688 93.4697265625 -27.4853515625 93.4697265625 -27.4853515625 c 1
 43.28125 -479.145507812 l 1
 190.46875 -49.2021484375 l 2
 215.079101562 22.6865234375 301.227539062 177.45703125 393.44921875 332.104492188 c 1
 389.831054688 310.4296875 384.47265625 276.3671875 384.47265625 252.63671875 c 0
 384.47265625 219.244140625 410.70703125 32.6171875 556.8359375 32.6171875 c 2
 939.35546875 32.6171875 l 1
 939.35546875 82.6171875 l 1
754.39453125 329.4921875 m 1
 704.39453125 329.4921875 l 1
 704.39453125 -175 l 1
 754.39453125 -175 l 1
 804.39453125 -175 l 1
 804.39453125 329.4921875 l 1
 754.39453125 329.4921875 l 1
EndSplineSet
Validated: 524325
EndChar

StartChar: Q
Encoding: 81 81 9
Width: 1000
VWidth: 0
Flags: HW
LayerCount: 2
Fore
SplineSet
771.58203125 -125 m 1
 771.58203125 -100 l 2
 746.671875 -100 700.87890625 -82.67578125 700.87890625 -28.80859375 c 0
 700.87890625 8.302734375 808.10546875 97.7900390625 808.10546875 207.6171875 c 0
 808.10546875 358.479492188 694.782226562 383.69140625 653.90625 383.69140625 c 0
 612.420898438 383.69140625 561.172851562 355.9453125 528.515625 319.814453125 c 2
 528.515625 566.30859375 l 1
 503.515625 566.30859375 l 1
 478.515625 566.30859375 l 1
 478.515625 218.26171875 l 1
 478.515625 30.634765625 l 1
 527.643554688 211.715820312 l 2
 552.013671875 301.543945312 618.001953125 333.69140625 653.90625 333.69140625 c 0
 680.999023438 333.69140625 758.10546875 323.161132812 758.10546875 207.6171875 c 0
 758.10546875 129.553710938 650.87890625 54.783203125 650.87890625 -28.80859375 c 0
 650.87890625 -120.05859375 730.671875 -150 771.58203125 -150 c 2
 771.58203125 -125 l 1
83.30078125 567.96875 m 1
 83.30078125 542.96875 l 1
 916.69921875 542.96875 l 1
 916.69921875 567.96875 l 1
 916.69921875 592.96875 l 1
 83.30078125 592.96875 l 1
 83.30078125 567.96875 l 1
688.28125 563.76953125 m 0
 688.28125 666.811523438 603.6796875 750 500 750 c 0
 396.305664062 750 311.81640625 666.791015625 311.81640625 563.76953125 c 0
 311.81640625 460.748046875 396.305664062 377.5390625 500 377.5390625 c 0
 603.6796875 377.5390625 688.28125 460.727539062 688.28125 563.76953125 c 0
638.28125 563.76953125 m 0
 638.28125 488.881835938 576.59375 427.5390625 500 427.5390625 c 0
 423.420898438 427.5390625 361.81640625 488.861328125 361.81640625 563.76953125 c 0
 361.81640625 638.677734375 423.420898438 700 500 700 c 0
 576.59375 700 638.28125 638.657226562 638.28125 563.76953125 c 0
EndSplineSet
Validated: 524293
EndChar

StartChar: U
Encoding: 85 85 10
Width: 1000
VWidth: 0
Flags: HW
LayerCount: 2
Fore
SplineSet
24.958984375 491.703125 m 1
 24.958984375 441.100585938 l 1
 975.041992188 441.100585938 l 1
 975.041992188 491.703125 l 1
 975.041992188 542.305664062 l 1
 24.958984375 542.305664062 l 1
 24.958984375 491.703125 l 1
500 -174.948242188 m 1
 549.404296875 -174.948242188 l 1
 549.404296875 774.97265625 l 1
 500 774.97265625 l 1
 450.596679688 774.97265625 l 1
 450.596679688 -174.948242188 l 1
 500 -174.948242188 l 1
206.19921875 774.873046875 m 1
 156.795898438 774.873046875 l 2
 156.795898438 389.625 275.650390625 230.856445312 500 230.856445312 c 0
 724.91015625 230.856445312 843.205078125 395.4296875 843.205078125 774.873046875 c 2
 793.801757812 774.873046875 l 1
 744.3984375 774.873046875 l 2
 744.3984375 410.176757812 651.327148438 332.060546875 500 332.060546875 c 0
 348.114257812 332.060546875 255.602539062 404.868164062 255.602539062 774.873046875 c 2
 206.19921875 774.873046875 l 1
EndSplineSet
Validated: 524293
EndChar

StartChar: F
Encoding: 70 70 11
Width: 1000
VWidth: 0
Flags: HW
LayerCount: 2
Fore
SplineSet
395.59765625 799.942382812 m 1
 458.342773438 616.451171875 l 1
 513.600585938 768.1484375 l 1
 629.1953125 768.1484375 l 1
 514.384765625 452.520507812 l 1
 627.744140625 121.017578125 l 1
 524.484375 85.6982421875 l 1
 454.947265625 289.112304688 l 1
 392.95703125 118.666992188 l 2
 403.071289062 105.663085938 412.697265625 89.29296875 421.84765625 69.546875 c 0
 446.892578125 12.7158203125 459.416992188 -33.767578125 459.416992188 -69.888671875 c 0
 459.416992188 -106.009765625 446.662109375 -136.583007812 421.13671875 -161.626953125 c 0
 396.092773438 -187.15234375 365.506835938 -199.920898438 329.384765625 -199.920898438 c 0
 293.263671875 -199.920898438 262.432617188 -187.15234375 236.90625 -161.626953125 c 0
 211.862304688 -136.583007812 199.3515625 -106.009765625 199.3515625 -69.888671875 c 0
 199.3515625 -33.767578125 212.106445312 12.7158203125 237.631835938 69.546875 c 0
 246.30078125 89.29296875 255.94140625 105.6640625 266.537109375 118.666992188 c 2
 86.64453125 612.09765625 l 2
 77.9755859375 636.66015625 61.849609375 654.479492188 38.2509765625 665.555664062 c 0
 25.728515625 671.334960938 12.9599609375 674.21875 -0.0439453125 674.21875 c 2
 -0.0439453125 782.586914062 l 2
 28.3720703125 782.586914062 56.548828125 776.087890625 84.482421875 763.083984375 c 0
 135.051757812 739.485351562 169.727539062 701.438476562 188.51171875 648.940429688 c 2
 329.384765625 262.44140625 l 1
 398.862304688 453.173828125 l 1
 292.380859375 764.680664062 l 1
 395.59765625 799.942382812 l 1
329.384765625 -12.091796875 m 0
 323.604492188 -12.091796875 318.540039062 -20.2685546875 314.206054688 -36.6435546875 c 0
 309.87109375 -53.01953125 307.705078125 -64.095703125 307.705078125 -69.8740234375 c 0
 307.705078125 -75.6533203125 309.87109375 -80.7177734375 314.206054688 -85.052734375 c 0
 318.540039062 -89.38671875 323.604492188 -91.5537109375 329.384765625 -91.5537109375 c 0
 335.1640625 -91.5537109375 340.213867188 -89.38671875 344.547851562 -85.052734375 c 0
 348.8828125 -80.7177734375 351.048828125 -75.6533203125 351.048828125 -69.8740234375 c 0
 351.048828125 -64.0947265625 348.8828125 -53.0185546875 344.547851562 -36.6435546875 c 0
 340.213867188 -20.2685546875 335.1640625 -12.091796875 329.384765625 -12.091796875 c 0
EndSplineSet
Validated: 524289
EndChar

StartChar: D
Encoding: 68 68 12
Width: 1000
VWidth: 0
Flags: HW
LayerCount: 2
Fore
SplineSet
386.153320312 592.708007812 m 2
 386.153320312 664.061523438 339.0234375 734.598632812 273.102539062 761.942382812 c 0
 250.840820312 771.169921875 226.962890625 775.873046875 202.987304688 775.873046875 c 0
 156.288085938 775.873046875 106.498046875 755.28515625 73.4541015625 722.241210938 c 0
 40.3994140625 689.186523438 19.7880859375 639.408203125 19.7880859375 592.673828125 c 0
 19.7880859375 568.659179688 24.546875 544.767578125 33.748046875 522.5703125 c 0
 61.04296875 456.645507812 131.619140625 409.5078125 202.987304688 409.5078125 c 2
 202.987304688 514.860351562 l 2
 178.057617188 514.860351562 140.607421875 539.877929688 131.0703125 562.911132812 c 0
 129.296875 567.189453125 125.139648438 588.086914062 125.139648438 592.673828125 c 0
 125.139648438 605.6796875 138.752929688 638.549804688 147.94921875 647.74609375 c 0
 157.086914062 656.883789062 190.015625 670.521484375 202.987304688 670.521484375 c 0
 207.681640625 670.521484375 228.524414062 666.376953125 232.737304688 664.629882812 c 0
 255.776367188 655.07421875 280.80078125 617.583984375 280.80078125 592.708007812 c 2
 386.153320312 592.708007812 l 2
745.556640625 155.59375 m 1
 745.556640625 208.26953125 l 1
 204.461914062 208.26953125 l 1
 204.461914062 155.59375 l 1
 204.461914062 102.91796875 l 1
 745.556640625 102.91796875 l 1
 745.556640625 155.59375 l 1
206.142578125 155.59375 m 1
 206.142578125 208.26953125 l 2
 178.418945312 208.26953125 132.66796875 234.680664062 118.796875 258.7265625 c 0
 113.564453125 267.783203125 105.283203125 298.66796875 105.283203125 309.12890625 c 0
 105.283203125 319.598632812 113.55078125 350.451171875 118.8125 359.55859375 c 0
 132.654296875 383.553710938 178.423828125 409.98828125 206.142578125 409.98828125 c 2
 206.142578125 462.6640625 l 1
 206.142578125 515.33984375 l 2
 135.985351562 515.33984375 62.6171875 472.979492188 27.5556640625 412.200195312 c 0
 10.11328125 382.006835938 -0.068359375 344.064453125 -0.068359375 309.12890625 c 0
 -0.068359375 274.184570312 10.1005859375 236.274414062 27.5712890625 206.029296875 c 0
 62.603515625 145.30078125 135.990234375 102.91796875 206.142578125 102.91796875 c 2
 206.142578125 155.59375 l 1
566.780273438 800.016601562 m 1
 514.104492188 800.016601562 l 1
 514.104492188 -200.002929688 l 1
 566.780273438 -200.002929688 l 1
 619.45703125 -200.002929688 l 1
 619.45703125 800.016601562 l 1
 566.780273438 800.016601562 l 1
EndSplineSet
Validated: 524293
EndChar

StartChar: e
Encoding: 101 101 13
Width: 1000
VWidth: 0
Flags: H
LayerCount: 2
Fore
SplineSet
437.51953125 498.08203125 m 0
 494.147460938 498.08203125 540.489257812 478.497070312 576.563476562 439.337890625 c 0
 613.01953125 400.5546875 631.235351562 346.4375 631.235351562 277.01171875 c 0
 631.235351562 193.256835938 610.872070312 125.182617188 570.15234375 72.82421875 c 0
 529.431640625 20.4658203125 509.075195312 -16.17578125 509.075195312 -37.119140625 c 0
 509.075195312 -58.0615234375 516.448242188 -75.9013671875 531.190429688 -90.63671875 c 0
 545.931640625 -105.37890625 563.771484375 -112.752929688 584.71484375 -112.752929688 c 2
 584.71484375 -200 l 2
 539.724609375 -200 501.305664062 -184.098632812 469.520507812 -152.313476562 c 0
 437.729492188 -120.497070312 421.827148438 -82.103515625 421.827148438 -37.119140625 c 0
 421.827148438 7.8720703125 442.190429688 56.5458984375 482.911132812 108.904296875 c 0
 523.631835938 161.26171875 543.98828125 217.3046875 543.98828125 277.01171875 c 0
 543.98828125 322.397460938 533.708007812 355.934570312 513.16015625 377.66796875 c 0
 492.98828125 399.77734375 466.608398438 410.810546875 434.02734375 410.810546875 c 0
 394.078125 410.810546875 359.182617188 392.014648438 329.329101562 354.3984375 c 0
 299.8515625 317.176757812 284.129882812 271.9765625 282.19140625 218.846679688 c 2
 282.19140625 210.423828125 l 1
 194.950195312 210.423828125 l 1
 194.950195312 317.306640625 242.409179688 389.6328125 282.19140625 429.446289062 c 0
 326.811523438 475.201171875 378.583007812 498.08203125 437.51953125 498.08203125 c 0
369.470703125 204.88671875 m 1
 -0 204.88671875 l 1
 -0 800 l 1
 624.40625 800 l 1
 624.40625 712.740234375 l 1
 87.2255859375 712.740234375 l 1
 87.2255859375 632.461914062 l 1
 369.470703125 632.461914062 l 1
 369.470703125 545.202148438 l 1
 87.2255859375 545.202148438 l 1
 87.2255859375 292.146484375 l 1
 369.470703125 292.146484375 l 1
 369.470703125 204.88671875 l 1
EndSplineSet
Validated: 524293
EndChar

StartChar: L
Encoding: 76 76 14
Width: 1000
VWidth: 0
Flags: H
LayerCount: 2
Fore
SplineSet
716.796875 334.375 m 1
 796.6796875 334.375 l 1
 796.6796875 -175 l 1
 716.796875 -175 l 1
 716.796875 334.375 l 1
56.640625 775 m 2
 79.7919921875 775.3828125 109.655273438 771.260742188 141.40625 758.59375 c 0
 173.157226562 745.926757812 207.01171875 723.8203125 229.296875 686.9140625 c 0
 240.025390625 669.129882812 236.853515625 664.810546875 237.5 656.25 c 0
 238.146484375 647.689453125 238.200195312 638.040039062 238.0859375 626.7578125 c 0
 237.857421875 604.193359375 236.55078125 575.248046875 234.375 541.40625 c 0
 230.0234375 473.72265625 222.389648438 387.232421875 214.2578125 301.7578125 c 0
 207.676757812 232.591796875 206.159179688 222.076171875 200.1953125 165.0390625 c 1
 246.284179688 251.77734375 280.484375 326.982421875 337.3046875 421.2890625 c 0
 434.88671875 583.25 524.8046875 723.046875 524.8046875 723.046875 c 1
 595.8984375 687.109375 l 1
 595.8984375 687.109375 564.97265625 606.942382812 534.1796875 512.109375 c 0
 503.38671875 417.276367188 473.828125 303.6328125 473.828125 256.8359375 c 0
 473.828125 253.50390625 480.813476562 208.78515625 496.875 176.5625 c 0
 504.905273438 160.451171875 514.990234375 146.599609375 525.1953125 137.890625 c 0
 535.400390625 129.181640625 544.318359375 125.1953125 557.2265625 125.1953125 c 2
 943.359375 125.1953125 l 1
 943.359375 45.1171875 l 1
 557.2265625 45.1171875 l 2
 524.137695312 45.1171875 494.819335938 58.5390625 473.2421875 76.953125 c 0
 451.665039062 95.3671875 436.541015625 118.252929688 425.1953125 141.015625 c 0
 402.50390625 186.540039062 393.75 227.658203125 393.75 256.8359375 c 0
 393.75 300.389648438 415.764648438 363.153320312 431.4453125 421.09375 c 1
 418.625976562 400.124023438 419.170898438 401.9765625 405.859375 379.8828125 c 0
 308.991210938 219.10546875 203.799804688 32.2158203125 177.5390625 -44.53125 c 2
 99.8046875 -27.1484375 l 1
 99.8046875 -27.1484375 118.38671875 139.079101562 134.5703125 309.1796875 c 0
 142.662109375 394.23046875 150.241210938 480.364257812 154.4921875 546.484375 c 0
 156.618164062 579.544921875 157.806640625 607.629882812 158.0078125 627.5390625 c 0
 158.098632812 636.549804688 157.909179688 643.26953125 157.6171875 648.046875 c 0
 146.48828125 664.459960938 130.60546875 676.83984375 111.71875 684.375 c 0
 91.533203125 692.427734375 69.146484375 695.109375 57.8125 694.921875 c 2
 56.640625 775 l 2
EndSplineSet
Validated: 524325
EndChar

StartChar: P
Encoding: 80 80 15
Width: 1000
VWidth: 0
Flags: HW
LayerCount: 2
Fore
SplineSet
694.4921875 567.96875 m 0
 694.4921875 675.321289062 607.352539062 762.4609375 500 762.4609375 c 0
 392.647460938 762.4609375 305.5078125 675.321289062 305.5078125 567.96875 c 0
 305.5078125 460.591796875 392.681640625 373.57421875 500 373.57421875 c 0
 607.318359375 373.57421875 694.4921875 460.591796875 694.4921875 567.96875 c 0
614.4921875 567.96875 m 0
 614.4921875 504.837890625 563.189453125 453.57421875 500 453.57421875 c 0
 436.810546875 453.57421875 385.5078125 504.837890625 385.5078125 567.96875 c 0
 385.5078125 631.124023438 436.844726562 682.4609375 500 682.4609375 c 0
 563.155273438 682.4609375 614.4921875 631.124023438 614.4921875 567.96875 c 0
83.30078125 567.96875 m 1
 83.30078125 527.96875 l 1
 916.69921875 527.96875 l 1
 916.69921875 567.96875 l 1
 916.69921875 607.96875 l 1
 83.30078125 607.96875 l 1
 83.30078125 567.96875 l 1
771.58203125 -125 m 1
 771.58203125 -85 l 2
 751.463867188 -85 715.87890625 -71.453125 715.87890625 -28.80859375 c 0
 715.87890625 -5.6396484375 823.10546875 88.259765625 823.10546875 207.6171875 c 0
 823.10546875 369.075195312 698.916015625 398.69140625 653.90625 398.69140625 c 0
 616.891601562 398.69140625 562.525390625 370.663085938 543.515625 355.37109375 c 2
 543.515625 566.30859375 l 1
 503.515625 566.30859375 l 1
 463.515625 566.30859375 l 1
 463.515625 218.26171875 l 1
 463.515625 -81.94140625 l 1
 542.120117188 207.788085938 l 2
 564.8828125 291.689453125 625.580078125 318.69140625 653.90625 318.69140625 c 0
 676.865234375 318.69140625 743.10546875 312.565429688 743.10546875 207.6171875 c 0
 743.10546875 139.083984375 635.87890625 68.7255859375 635.87890625 -28.80859375 c 0
 635.87890625 -131.28125 725.879882812 -165 771.58203125 -165 c 2
 771.58203125 -125 l 1
EndSplineSet
Validated: 524293
EndChar

StartChar: u
Encoding: 117 117 16
Width: 1000
VWidth: 0
Flags: HW
LayerCount: 2
Fore
SplineSet
159.834960938 764.860351562 m 2
 241.484375 764.860351562 l 2
 236.749023438 744.901367188 233.991210938 724.197265625 233.991210938 702.745117188 c 0
 233.991210938 555.12109375 352.639648438 436.352539062 500.021484375 436.352539062 c 0
 647.40234375 436.352539062 766 555.12109375 766 702.745117188 c 0
 766 724.19921875 763.2421875 744.900390625 758.506835938 764.860351562 c 2
 840.155273438 764.860351562 l 2
 843.837890625 744.669921875 846.098632812 723.975585938 846.098632812 702.745117188 c 0
 846.098632812 525.495117188 711.916015625 378.775390625 540.018554688 358.787109375 c 1
 540.018554688 134.045898438 l 2
 607.09375 116.151367188 657.013671875 54.6943359375 657.013671875 -17.779296875 c 0
 657.013671875 -104.090820312 586.303710938 -174.979492188 500.021484375 -174.979492188 c 0
 413.73828125 -174.979492188 342.9765625 -104.090820312 342.9765625 -17.779296875 c 0
 342.9765625 54.6826171875 392.913085938 116.087890625 459.971679688 133.994140625 c 2
 459.971679688 358.787109375 l 1
 288.091796875 378.798828125 153.892578125 525.512695312 153.892578125 702.745117188 c 0
 153.892578125 723.975585938 156.15234375 744.669921875 159.834960938 764.860351562 c 2
500.021484375 59.373046875 m 0
 457.032226562 59.373046875 423.0234375 25.35546875 423.0234375 -17.779296875 c 0
 423.0234375 -60.9140625 457.032226562 -94.9326171875 500.021484375 -94.9326171875 c 0
 543.009765625 -94.9326171875 576.967773438 -60.9140625 576.967773438 -17.779296875 c 0
 576.967773438 25.35546875 543.009765625 59.373046875 500.021484375 59.373046875 c 0
EndSplineSet
Validated: 524289
EndChar

StartChar: a
Encoding: 97 97 17
Width: 1000
VWidth: 0
Flags: HW
LayerCount: 2
Fore
SplineSet
140.935546875 126.682617188 m 0
 159.807617188 115.787109375 184.688476562 122.454101562 195.583007812 141.326171875 c 2
 500 668.619140625 l 1
 804.416992188 141.326171875 l 2
 815.311523438 122.454101562 840.192382812 115.787109375 859.064453125 126.682617188 c 0
 877.936523438 137.577148438 884.603515625 162.458007812 873.708007812 181.330078125 c 2
 534.645507812 768.634765625 l 1
 500 828.646484375 l 1
 465.354492188 768.634765625 l 1
 126.291992188 181.330078125 l 2
 115.396484375 162.458007812 122.063476562 137.577148438 140.935546875 126.682617188 c 0
500 99.51171875 m 1
 540 99.51171875 l 1
 540 398.046875 l 1
 500 398.046875 l 1
 460 398.046875 l 1
 460 99.51171875 l 1
 500 99.51171875 l 1
500 99.515625 m 1
 500 398 l 1025
656.9921875 -17.7734375 m 0
 656.9921875 68.888671875 586.815429688 139.4140625 500 139.4140625 c 0
 413.184570312 139.4140625 343.0078125 68.888671875 343.0078125 -17.7734375 c 0
 343.0078125 -104.5390625 413.21484375 -174.9609375 500 -174.9609375 c 0
 586.78515625 -174.9609375 656.9921875 -104.5390625 656.9921875 -17.7734375 c 0
576.9921875 -17.7734375 m 0
 576.9921875 -60.5 542.51171875 -94.9609375 500 -94.9609375 c 0
 457.48828125 -94.9609375 423.0078125 -60.5 423.0078125 -17.7734375 c 0
 423.0078125 24.861328125 457.518554688 59.4140625 500 59.4140625 c 0
 542.481445312 59.4140625 576.9921875 24.861328125 576.9921875 -17.7734375 c 0
305.078125 404.39453125 m 1
 305.078125 364.389648438 l 1
 694.921875 364.389648438 l 1
 694.921875 404.39453125 l 1
 694.921875 444.399414062 l 1
 305.078125 444.399414062 l 1
 305.078125 404.39453125 l 1
EndSplineSet
Validated: 524331
EndChar

StartChar: t
Encoding: 116 116 18
Width: 1000
VWidth: 0
Flags: H
LayerCount: 2
Fore
SplineSet
500 99.51171875 m 1
 540 99.51171875 l 1
 540 728.02734375 l 1
 500 728.02734375 l 1
 460 728.02734375 l 1
 460 99.51171875 l 1
 500 99.51171875 l 1
500 99.515625 m 1
 500 728.067382812 l 1025
656.9921875 -17.7734375 m 0
 656.9921875 68.888671875 586.815429688 139.4140625 500 139.4140625 c 0
 413.184570312 139.4140625 343.0078125 68.888671875 343.0078125 -17.7734375 c 0
 343.0078125 -104.5390625 413.21484375 -174.9609375 500 -174.9609375 c 0
 586.78515625 -174.9609375 656.9921875 -104.5390625 656.9921875 -17.7734375 c 0
576.9921875 -17.7734375 m 0
 576.9921875 -60.5 542.51171875 -94.9609375 500 -94.9609375 c 0
 457.48828125 -94.9609375 423.0078125 -60.5 423.0078125 -17.7734375 c 0
 423.0078125 24.861328125 457.518554688 59.4140625 500 59.4140625 c 0
 542.481445312 59.4140625 576.9921875 24.861328125 576.9921875 -17.7734375 c 0
955.6640625 727.34375 m 1
 955.6640625 767.34375 l 1
 44.3359375 767.34375 l 1
 44.3359375 727.34375 l 1
 44.3359375 687.34375 l 1
 955.6640625 687.34375 l 1
 955.6640625 727.34375 l 1
955.625976562 727.30859375 m 1
 44.3740234375 727.30859375 l 1025
EndSplineSet
Validated: 524299
EndChar

StartChar: o
Encoding: 111 111 19
Width: 1000
VWidth: 0
Flags: H
LayerCount: 2
Fore
SplineSet
500 99.51171875 m 1
 540 99.51171875 l 1
 540 342.96875 l 1
 500 342.96875 l 1
 460 342.96875 l 1
 460 99.51171875 l 1
 500 99.51171875 l 1
500 99.515625 m 1
 500 342.932617188 l 1025
656.9921875 -17.7734375 m 0
 656.9921875 68.888671875 586.815429688 139.4140625 500 139.4140625 c 0
 413.184570312 139.4140625 343.0078125 68.888671875 343.0078125 -17.7734375 c 0
 343.0078125 -104.5390625 413.21484375 -174.9609375 500 -174.9609375 c 0
 586.78515625 -174.9609375 656.9921875 -104.5390625 656.9921875 -17.7734375 c 0
576.9921875 -17.7734375 m 0
 576.9921875 -60.5 542.51171875 -94.9609375 500 -94.9609375 c 0
 457.48828125 -94.9609375 423.0078125 -60.5 423.0078125 -17.7734375 c 0
 423.0078125 24.861328125 457.518554688 59.4140625 500 59.4140625 c 0
 542.481445312 59.4140625 576.9921875 24.861328125 576.9921875 -17.7734375 c 0
735.21484375 539.453125 m 0
 735.21484375 669.395507812 629.9609375 774.9609375 500 774.9609375 c 0
 370.0390625 774.9609375 264.78515625 669.395507812 264.78515625 539.453125 c 0
 264.78515625 409.510742188 370.0390625 303.9453125 500 303.9453125 c 0
 629.9609375 303.9453125 735.21484375 409.510742188 735.21484375 539.453125 c 0
655.21484375 539.453125 m 0
 655.21484375 453.575195312 585.6640625 383.9453125 500 383.9453125 c 0
 414.3359375 383.9453125 344.78515625 453.575195312 344.78515625 539.453125 c 0
 344.78515625 625.331054688 414.3359375 694.9609375 500 694.9609375 c 0
 585.6640625 694.9609375 655.21484375 625.331054688 655.21484375 539.453125 c 0
EndSplineSet
Validated: 524299
EndChar

StartChar: r
Encoding: 114 114 20
Width: 1000
VWidth: 0
Flags: H
LayerCount: 2
Fore
SplineSet
784.62890625 596.97265625 m 0
 784.62890625 694.475585938 707.03125 774.9609375 609.66796875 774.9609375 c 0
 512.3046875 774.9609375 434.70703125 694.475585938 434.70703125 596.97265625 c 0
 434.70703125 499.49609375 512.266601562 418.88671875 609.66796875 418.88671875 c 0
 707.069335938 418.88671875 784.62890625 499.49609375 784.62890625 596.97265625 c 0
704.62890625 596.97265625 m 0
 704.62890625 542.10546875 661.290039062 498.88671875 609.66796875 498.88671875 c 0
 558.045898438 498.88671875 514.70703125 542.10546875 514.70703125 596.97265625 c 0
 514.70703125 651.813476562 558.0078125 694.9609375 609.66796875 694.9609375 c 0
 661.328125 694.9609375 704.62890625 651.813476562 704.62890625 596.97265625 c 0
475.9765625 581.4453125 m 1
 435.9765625 581.4453125 l 1
 435.9765625 352.63671875 l 1
 475.9765625 352.63671875 l 1
 515.9765625 352.63671875 l 1
 515.9765625 581.4453125 l 1
 475.9765625 581.4453125 l 1
475.953125 581.473632812 m 1
 475.953125 352.622070312 l 1025
599.12109375 -134.9609375 m 1
 599.12109375 -94.9609375 l 2
 576.76171875 -94.9609375 537.55859375 -79.98828125 537.55859375 -33.3984375 c 0
 537.55859375 -7.1748046875 651.328125 91.384765625 651.328125 216.015625 c 0
 651.328125 385.065429688 521.104492188 415.48828125 474.21875 415.48828125 c 0
 402.614257812 415.48828125 309.01953125 358.97265625 275.962890625 237.877929688 c 2
 314.55078125 227.34375 l 1
 353.138671875 216.809570312 l 2
 377.50390625 306.06640625 442.698242188 335.48828125 474.21875 335.48828125 c 0
 499.403320312 335.48828125 571.328125 328.215820312 571.328125 216.015625 c 0
 571.328125 142.404296875 457.55859375 67.5263671875 457.55859375 -33.3984375 c 0
 457.55859375 -140.12890625 551.55859375 -174.9609375 599.12109375 -174.9609375 c 2
 599.12109375 -134.9609375 l 1
EndSplineSet
Validated: 524299
EndChar

StartChar: h
Encoding: 104 104 21
Width: 1000
VWidth: 0
Flags: HO
LayerCount: 2
Fore
SplineSet
50.0224609375 774.782226562 m 1
 950.01953125 774.782226562 l 1
 950.01953125 694.94140625 l 1
 540.018554688 694.94140625 l 1
 540.018554688 366.3828125 l 2
 577.706054688 399.305664062 621.668945312 415.423828125 660.734375 415.423828125 c 0
 685.71484375 415.423828125 727.37109375 409.979492188 766.774414062 380.490234375 c 0
 806.178710938 351.001953125 837.881835938 295.891601562 837.881835938 216.004882812 c 0
 837.881835938 151.133789062 803.200195312 98.5546875 774.009765625 55.4462890625 c 0
 744.819335938 12.337890625 724.038085938 -25.4326171875 724.038085938 -33.3857421875 c 0
 724.038085938 -60.0888671875 732.9765625 -71.4765625 745.690429688 -81.03125 c 0
 758.405273438 -90.5859375 777.766601562 -94.9326171875 785.740234375 -94.9326171875 c 2
 785.740234375 -174.979492188 l 2
 758.745117188 -174.979492188 727.000976562 -166.974609375 697.631835938 -144.903320312 c 0
 668.262695312 -122.83203125 643.940429688 -83.298828125 643.940429688 -33.3857421875 c 0
 643.940429688 22.2802734375 680.087890625 59.4609375 707.8125 100.404296875 c 0
 735.536132812 141.348632812 757.834960938 181.759765625 757.834960938 216.004882812 c 0
 757.834960938 276.711914062 738.923828125 301.327148438 718.767578125 316.412109375 c 0
 698.611328125 331.497070312 671.75 335.532226562 660.734375 335.532226562 c 0
 631.446289062 335.532226562 564.805664062 306.837890625 540.018554688 217.916992188 c 2
 540.018554688 -139.6328125 l 1
 459.971679688 -139.6328125 l 1
 459.971679688 694.94140625 l 1
 50.0224609375 694.94140625 l 1
 50.0224609375 774.782226562 l 1
EndSplineSet
EndChar

StartChar: d
Encoding: 100 100 22
Width: 1000
VWidth: 0
Flags: H
LayerCount: 2
Fore
SplineSet
511.388671875 483.076171875 m 2
 511.268554688 483.216796875 l 2
 560.987304688 483.216796875 601.809570312 465.96484375 633.497070312 431.529296875 c 0
 665.586914062 397.407226562 681.592773438 349.84375 681.592773438 288.786132812 c 0
 681.592773438 215.095703125 663.696289062 155.23046875 627.887695312 109.182617188 c 0
 592.129882812 63.1337890625 574.166992188 30.9150390625 574.166992188 12.4990234375 c 0
 574.166992188 -5.9306640625 580.893554688 -21.625 593.6328125 -34.5849609375 c 0
 606.567382812 -47.5458984375 622.275390625 -54.0263671875 640.69140625 -54.0263671875 c 2
 640.69140625 -130.802734375 l 2
 601.11328125 -130.802734375 567.32421875 -116.83203125 539.408203125 -88.86328125 c 0
 511.426757812 -60.8935546875 497.46875 -27.107421875 497.46875 12.4736328125 c 0
 497.46875 52.04296875 515.377929688 94.8232421875 551.134765625 140.883789062 c 0
 586.942382812 186.93359375 604.840820312 236.23046875 604.840820312 288.760742188 c 0
 604.840820312 293.750976562 604.693359375 298.57421875 604.448242188 303.237304688 c 0
 603.905273438 312.568359375 602.817382812 321.239257812 601.157226562 329.26171875 c 0
 599.498046875 337.284179688 597.25390625 344.658203125 594.45703125 351.384765625 c 0
 593.041015625 354.741210938 591.498046875 357.943359375 589.7890625 360.975585938 c 0
 586.379882812 367.053710938 582.390625 372.482421875 577.76171875 377.25390625 c 0
 573.341796875 382.11328125 568.572265625 386.3671875 563.466796875 390.006835938 c 0
 555.806640625 395.475585938 547.369140625 399.584960938 538.180664062 402.318359375 c 0
 535.122070312 403.224609375 531.970703125 403.939453125 528.732421875 404.5859375 c 0
 525.505859375 405.178710938 522.1875 405.712890625 518.79296875 405.958007812 c 0
 515.383789062 406.203125 511.8984375 406.349609375 508.307617188 406.349609375 c 0
 477.541015625 406.349609375 444.947265625 401.204101562 419.623046875 377.772460938 c 0
 415.993164062 374.416015625 412.5078125 370.696289062 409.215820312 366.561523438 c 0
 409.068359375 366.306640625 408.970703125 366.16015625 408.82421875 365.915039062 c 0
 406.180664062 362.51953125 403.780273438 358.916015625 401.52734375 355.18359375 c 0
 400.841796875 354.04296875 400.150390625 352.901367188 399.50390625 351.735351562 c 0
 397.3515625 347.899414062 395.358398438 343.947265625 393.555664062 339.837890625 c 0
 393.036132812 338.84375 392.649414062 337.819335938 392.2578125 336.78125 c 0
 391.077148438 333.916992188 390.029296875 330.977539062 388.990234375 327.994140625 c 0
 387.122070312 322.62890625 385.452148438 317.120117188 384.026367188 311.469726562 c 0
 383.771484375 310.690429688 383.526367188 309.94140625 383.379882812 309.162109375 c 0
 381.719726562 302.280273438 380.411132812 295.255859375 379.24609375 288.1015625 c 2
 379.24609375 287.857421875 l 1
 318.265625 287.857421875 l 2
 319.76953125 363.948242188 329.659179688 380.755859375 368.8515625 426.142578125 c 0
 408.033203125 466.396484375 459.559570312 483.076171875 511.388671875 483.076171875 c 2
496.693359375 800 m 1
 1000.1328125 288.106445312 l 1
 604.78125 288.106445312 l 2
 605.036132812 288.25390625 605.182617188 288.3515625 605.427734375 288.499023438 c 0
 605.427734375 320.615234375 599.73828125 345.875 587.944335938 364.51171875 c 2
 817.62890625 364.51171875 l 1
 496.913085938 690.747070312 l 1
 180.631835938 364.51171875 l 1
 408.419921875 364.51171875 l 2
 392.77734375 343.80078125 384.276367188 316.79296875 379.764648438 288.072265625 c 2
 0.146484375 288.072265625 l 1
 496.693359375 800 l 1
EndSplineSet
Validated: 524293
EndChar

StartChar: O
Encoding: 79 79 23
Width: 1000
VWidth: 0
Flags: HW
LayerCount: 2
Fore
SplineSet
694.4921875 567.96875 m 0
 694.4921875 675.321289062 607.352539062 762.4609375 500 762.4609375 c 0
 392.647460938 762.4609375 305.5078125 675.321289062 305.5078125 567.96875 c 0
 305.5078125 460.591796875 392.681640625 373.57421875 500 373.57421875 c 0
 607.318359375 373.57421875 694.4921875 460.591796875 694.4921875 567.96875 c 0
614.4921875 567.96875 m 0
 614.4921875 504.837890625 563.189453125 453.57421875 500 453.57421875 c 0
 436.810546875 453.57421875 385.5078125 504.837890625 385.5078125 567.96875 c 0
 385.5078125 631.124023438 436.844726562 682.4609375 500 682.4609375 c 0
 563.155273438 682.4609375 614.4921875 631.124023438 614.4921875 567.96875 c 0
83.30078125 567.96875 m 1
 83.30078125 527.96875 l 1
 916.69921875 527.96875 l 1
 916.69921875 567.96875 l 1
 916.69921875 607.96875 l 1
 83.30078125 607.96875 l 1
 83.30078125 567.96875 l 1
771.58203125 -125 m 1
 771.58203125 -85 l 2
 751.463867188 -85 715.87890625 -71.453125 715.87890625 -28.80859375 c 0
 715.87890625 -5.6396484375 823.10546875 88.259765625 823.10546875 207.6171875 c 0
 823.10546875 369.075195312 698.916015625 398.69140625 653.90625 398.69140625 c 0
 616.891601562 398.69140625 562.525390625 370.663085938 543.515625 355.37109375 c 2
 543.515625 566.30859375 l 1
 503.515625 566.30859375 l 1
 463.515625 566.30859375 l 1
 463.515625 218.26171875 l 1
 464 206 l 1
 542.120117188 207.788085938 l 2
 542.120117188 207.788085938 625.580078125 318.69140625 653.90625 318.69140625 c 0
 676.865234375 318.69140625 743.10546875 312.565429688 743.10546875 207.6171875 c 0
 743.10546875 139.083984375 635.87890625 68.7255859375 635.87890625 -28.80859375 c 0
 635.87890625 -131.28125 725.879882812 -165 771.58203125 -165 c 2
 771.58203125 -125 l 1
EndSplineSet
Validated: 524293
EndChar

StartChar: i
Encoding: 105 105 24
Width: 1000
VWidth: 0
Flags: H
LayerCount: 2
Fore
SplineSet
88.4697265625 750.59765625 m 1
 911.520507812 750.59765625 l 1
 911.520507812 670.706054688 l 1
 391.603515625 670.706054688 l 1
 391.603515625 448.754882812 l 2
 435.333007812 489.978515625 487.741210938 509.78515625 533.197265625 509.78515625 c 0
 560.59375 509.78515625 606.865234375 503.720703125 650.399414062 471.493164062 c 0
 693.93359375 439.264648438 729.309570312 379.072265625 729.309570312 290.211914062 c 0
 729.309570312 218.921875 690.7734375 160.545898438 657.633789062 112.134765625 c 0
 624.495117188 63.7236328125 599.80859375 20.9013671875 599.80859375 9.1953125 c 0
 599.80859375 -22.2138671875 610.956054688 -36.6044921875 626.577148438 -48.216796875 c 0
 642.198242188 -59.8291015625 665.069335938 -65.0634765625 675.56640625 -65.0634765625 c 2
 675.56640625 -145.110351562 l 2
 646.252929688 -145.110351562 611.220703125 -136.298828125 578.930664062 -112.295898438 c 0
 546.641601562 -88.2919921875 519.709960938 -45.6767578125 519.709960938 9.1953125 c 0
 519.709960938 69.1357421875 559.935546875 111.002929688 591.591796875 157.249023438 c 0
 623.248046875 203.494140625 649.41796875 249.881835938 649.41796875 290.211914062 c 0
 649.41796875 359.682617188 627.181640625 389.23828125 602.909179688 407.20703125 c 0
 578.635742188 425.176757812 546.779296875 429.686523438 533.197265625 429.686523438 c 0
 496.998046875 429.686523438 421.127929688 396.14453125 391.603515625 297.033203125 c 2
 391.603515625 273.26171875 l 1
 351.606445312 273.26171875 l 1
 311.505859375 273.26171875 l 1
 311.505859375 670.706054688 l 1
 88.4697265625 670.706054688 l 1
 88.4697265625 750.59765625 l 1
88.4765625 -65.0390625 m 1
 911.5234375 -65.0390625 l 1
 911.5234375 -145.1171875 l 1
 88.4765625 -145.1171875 l 1
 88.4765625 -65.0390625 l 1
88.49609375 -105.041015625 m 1
 911.50390625 -105.041015625 l 1025
EndSplineSet
Validated: 524299
EndChar

StartChar: j
Encoding: 106 106 25
Width: 1000
VWidth: 0
Flags: HW
LayerCount: 2
Fore
SplineSet
88.4765625 710.64453125 m 1
 88.4765625 670.64453125 l 1
 911.5234375 670.64453125 l 1
 911.5234375 710.64453125 l 1
 911.5234375 750.64453125 l 1
 88.4765625 750.64453125 l 1
 88.4765625 710.64453125 l 1
88.49609375 710.674804688 m 1
 911.50390625 710.674804688 l 1025
88.4765625 -105.078125 m 1
 88.4765625 -145.078125 l 1
 911.5234375 -145.078125 l 1
 911.5234375 -105.078125 l 1
 911.5234375 -65.078125 l 1
 88.4765625 -65.078125 l 1
 88.4765625 -105.078125 l 1
88.49609375 -105.041015625 m 1
 911.50390625 -105.041015625 l 1025
675.48828125 -105.17578125 m 1
 675.48828125 -65.17578125 l 2
 648.001953125 -65.17578125 599.765625 -46.619140625 599.765625 9.27734375 c 0
 599.765625 43.2158203125 729.35546875 152.877929688 729.35546875 290.234375 c 0
 729.35546875 477.3203125 584.706054688 509.7265625 533.30078125 509.7265625 c 0
 454.775390625 509.7265625 350.073242188 448.146484375 312.908203125 313.578125 c 2
 351.46484375 302.9296875 l 1
 390.021484375 292.28125 l 2
 418.286132812 394.626953125 494.248046875 429.7265625 533.30078125 429.7265625 c 0
 563.731445312 429.7265625 649.35546875 419.75 649.35546875 290.234375 c 0
 649.35546875 204.348632812 519.765625 118.502929688 519.765625 9.27734375 c 0
 519.765625 -107.482421875 623.482421875 -145.17578125 675.48828125 -145.17578125 c 2
 675.48828125 -105.17578125 l 1
351.5625 708.10546875 m 1
 311.5625 708.10546875 l 1
 311.5625 273.2421875 l 1
 351.5625 273.2421875 l 1
 391.5625 273.2421875 l 1
 391.5625 708.10546875 l 1
 351.5625 708.10546875 l 1
351.583007812 708.12109375 m 1
 351.583007812 273.224609375 l 1025
EndSplineSet
Validated: 524299
EndChar

StartChar: g
Encoding: 103 103 26
Width: 1000
VWidth: 0
Flags: HW
LayerCount: 2
Fore
SplineSet
50 734.86328125 m 1
 50 694.86328125 l 1
 950 694.86328125 l 1
 950 734.86328125 l 1
 950 774.86328125 l 1
 50 774.86328125 l 1
 50 734.86328125 l 1
785.64453125 -134.9609375 m 1
 785.64453125 -94.9609375 l 2
 763.250976562 -94.9609375 723.984375 -79.947265625 723.984375 -33.3984375 c 0
 723.984375 -7.197265625 837.8515625 91.3671875 837.8515625 216.015625 c 0
 837.8515625 385.083984375 707.525390625 415.48828125 660.7421875 415.48828125 c 0
 589.134765625 415.48828125 495.55859375 358.978515625 462.397460938 237.911132812 c 2
 500.9765625 227.34375 l 1
 539.555664062 216.776367188 l 2
 564.01171875 306.060546875 629.224609375 335.48828125 660.7421875 335.48828125 c 0
 685.833984375 335.48828125 757.8515625 328.197265625 757.8515625 216.015625 c 0
 757.8515625 142.421875 643.984375 67.548828125 643.984375 -33.3984375 c 0
 643.984375 -140.169921875 738.116210938 -174.9609375 785.64453125 -174.9609375 c 2
 785.64453125 -134.9609375 l 1
500 -139.55078125 m 1
 540 -139.55078125 l 1
 540 739.55078125 l 1
 500 739.55078125 l 1
 460 739.55078125 l 1
 460 -139.55078125 l 1
 500 -139.55078125 l 1
EndSplineSet
EndChar
